<svg width="33" height="33" viewBox="0 0 33 33" xmlns="http://www.w3.org/2000/svg"><title>Combined Shape</title><path d="M16.495.01c4.48 0 5.041.02 6.8.1 1.756.08 2.955.358 4.005.765a8.087 8.087 0 0 1 2.921 1.898 8.068 8.068 0 0 1 1.903 2.916c.407 1.047.686 2.244.766 3.996.08 1.756.1 2.317.1 6.788 0 4.47-.02 5.031-.1 6.787-.08 1.752-.359 2.949-.766 3.996a8.068 8.068 0 0 1-1.903 2.916A8.087 8.087 0 0 1 27.3 32.07c-1.05.407-2.249.686-4.004.766-1.76.08-2.321.099-6.801.099s-5.042-.02-6.801-.1c-1.756-.08-2.955-.358-4.004-.765a8.087 8.087 0 0 1-2.922-1.898 8.068 8.068 0 0 1-1.902-2.916C.458 26.209.179 25.012.099 23.26.02 21.504 0 20.943 0 16.473c0-4.471.019-5.032.1-6.788.08-1.752.358-2.949.766-3.996.421-1.082.985-2 1.902-2.916A8.087 8.087 0 0 1 5.69.875C6.74.468 7.938.189 9.694.109c1.76-.08 2.321-.099 6.8-.099zm0 2.967c-4.405 0-4.926.016-6.666.096-1.608.073-2.481.34-3.062.566-.77.299-1.32.656-1.897 1.232a5.1 5.1 0 0 0-1.234 1.893c-.226.58-.494 1.451-.568 3.056-.08 1.736-.096 2.257-.096 6.653 0 4.395.017 4.916.096 6.652.074 1.605.342 2.476.568 3.056a5.1 5.1 0 0 0 1.234 1.893 5.112 5.112 0 0 0 1.897 1.232c.58.225 1.454.493 3.063.567 1.739.079 2.26.096 6.665.096 4.404 0 4.926-.017 6.665-.096 1.608-.074 2.482-.342 3.063-.567a5.112 5.112 0 0 0 1.897-1.232 5.1 5.1 0 0 0 1.233-1.893c.226-.58.495-1.451.568-3.056.08-1.736.097-2.257.097-6.652 0-4.396-.017-4.917-.097-6.653-.073-1.605-.342-2.476-.568-3.056A5.1 5.1 0 0 0 28.12 4.87a5.112 5.112 0 0 0-1.897-1.232c-.581-.225-1.455-.493-3.063-.566-1.74-.08-2.26-.096-6.665-.096zM16.5 8a8.5 8.5 0 1 1 0 17 8.5 8.5 0 0 1 0-17zM27 8a2 2 0 1 1-4 0 2 2 0 0 1 4 0zM16.5 22.018a5.517 5.517 0 1 0 0-11.035 5.517 5.517 0 0 0 0 11.035z" fill-rule="evenodd"/></svg>