<?xml version="1.0" encoding="UTF-8"?>
<svg width="33px" height="33px" viewBox="0 0 33 33" version="1.1" xmlns="http://www.w3.org/2000/svg" xmlns:xlink="http://www.w3.org/1999/xlink">
    <!-- Generator: Sketch 48.1 (47250) - http://www.bohemiancoding.com/sketch -->
    <title>Combined Shape</title>
    <desc>Created with Sketch.</desc>
    <defs></defs>
    <g id="Top_Panel/travel" stroke="none" stroke-width="1" fill="none" fill-rule="evenodd" transform="translate(-1470.000000, -16.000000)">
        <path d="M1486.49479,16.0103901 C1490.97454,16.0103901 1491.53626,16.0293406 1493.29554,16.1094554 C1495.05129,16.1893743 1496.25029,16.4676851 1497.29954,16.874598 C1498.38422,17.295299 1499.3041,17.8581941 1500.22109,18.7733723 C1501.13809,19.6886158 1501.7021,20.6066693 1502.12363,21.6892 C1502.53142,22.7363129 1502.81022,23.933004 1502.89036,25.6852059 C1502.97063,27.4410673 1502.98962,28.0016752 1502.98962,32.4725545 C1502.98962,36.9433683 1502.97063,37.5039762 1502.89036,39.2598376 C1502.81022,41.0120396 1502.53142,42.2087307 1502.12363,43.2558436 C1501.7021,44.3383743 1501.13809,45.2564277 1500.22109,46.1716713 C1499.3041,47.0868495 1498.38422,47.6497446 1497.29954,48.0704455 C1496.25029,48.4773584 1495.05129,48.7556693 1493.29554,48.8355881 C1491.53626,48.915703 1490.97454,48.9346535 1486.49479,48.9346535 C1482.01504,48.9346535 1481.45332,48.915703 1479.69404,48.8355881 C1477.9383,48.7556693 1476.7393,48.4773584 1475.69004,48.0704455 C1474.60537,47.6497446 1473.68549,47.0868495 1472.7685,46.1716713 C1471.8515,45.2564277 1471.28749,44.3383743 1470.86596,43.2558436 C1470.45817,42.2087307 1470.17937,41.0120396 1470.09923,39.2598376 C1470.01896,37.5039762 1469.99997,36.9433683 1469.99997,32.4725545 C1469.99997,28.0016752 1470.01896,27.4410673 1470.09923,25.6852059 C1470.17937,23.933004 1470.45817,22.7363129 1470.86596,21.6892 C1471.28749,20.6066693 1471.8515,19.6886158 1472.7685,18.7733723 C1473.68549,17.8581941 1474.60537,17.295299 1475.69004,16.874598 C1476.7393,16.4676851 1477.9383,16.1893743 1479.69404,16.1094554 C1481.45332,16.0293406 1482.01504,16.0103901 1486.49479,16.0103901 Z M1486.49479,18.9765347 C1482.09047,18.9765347 1481.56882,18.9933287 1479.82945,19.0725287 C1478.22129,19.1457168 1477.34784,19.413899 1476.7666,19.6393446 C1475.99674,19.9379782 1475.44726,20.294705 1474.87002,20.8708 C1474.29285,21.4468297 1473.93535,21.9952178 1473.63612,22.7636277 C1473.41029,23.3437089 1473.14158,24.2153663 1473.06818,25.8204079 C1472.98882,27.5562733 1472.97206,28.0769545 1472.97206,32.4725545 C1472.97206,36.8680891 1472.98882,37.3887703 1473.06818,39.1246356 C1473.14158,40.7296772 1473.41029,41.6013347 1473.63612,42.1814158 C1473.93535,42.9498257 1474.29285,43.4982139 1474.87002,44.0742436 C1475.44726,44.6503386 1475.99674,45.0070653 1476.7666,45.305699 C1477.34784,45.5311446 1478.22129,45.7993267 1479.82951,45.8725149 C1481.56856,45.9517149 1482.09021,45.9685089 1486.49479,45.9685089 C1490.89938,45.9685089 1491.42103,45.9517149 1493.16007,45.8725149 C1494.7683,45.7993267 1495.64175,45.5311446 1496.22299,45.305699 C1496.99285,45.0070653 1497.54233,44.6503386 1498.11957,44.0742436 C1498.69674,43.4982139 1499.05424,42.9498257 1499.35347,42.1814158 C1499.57929,41.6013347 1499.84801,40.7296772 1499.92141,39.1246356 C1500.00076,37.3887703 1500.01753,36.8680891 1500.01753,32.4725545 C1500.01753,28.0769545 1500.00076,27.5562733 1499.92141,25.8204079 C1499.84801,24.2153663 1499.57929,23.3437089 1499.35347,22.7636277 C1499.05424,21.9952178 1498.69674,21.4468297 1498.11957,20.8708 C1497.54233,20.294705 1496.99285,19.9379782 1496.22299,19.6393446 C1495.64175,19.413899 1494.7683,19.1457168 1493.16007,19.0725287 C1491.42076,18.9933287 1490.89912,18.9765347 1486.49479,18.9765347 Z M1486.5,24 C1491.1944,24 1495,27.8055494 1495,32.5000329 C1495,37.1944506 1491.1944,41 1486.5,41 C1481.8056,41 1478,37.1944506 1478,32.5000329 C1478,27.8055494 1481.8056,24 1486.5,24 Z M1497,24 C1497,25.1045981 1496.10455,26 1495.00003,26 C1493.89545,26 1493,25.1045981 1493,24 C1493,22.8954019 1493.89545,22 1495.00003,22 C1496.10455,22 1497,22.8954019 1497,24 Z M1486.5,38.0175473 C1489.54723,38.0175473 1492.01749,35.5472715 1492.01749,32.5000329 C1492.01749,29.4527285 1489.54723,26.9824527 1486.5,26.9824527 C1483.45277,26.9824527 1480.98244,29.4527285 1480.98244,32.5000329 C1480.98244,35.5472715 1483.45277,38.0175473 1486.5,38.0175473 Z" id="Combined-Shape" fill="#000000"></path>
    </g>
</svg>